<?xml version="1.0" standalone="no"?>
<!DOCTYPE svg PUBLIC "-//W3C//DTD SVG 20010904//EN"
 "http://www.w3.org/TR/2001/REC-SVG-20010904/DTD/svg10.dtd">
<svg version="1.0" xmlns="http://www.w3.org/2000/svg"
 width="32.000000pt" height="32.000000pt" viewBox="0 0 32.000000 32.000000"
 preserveAspectRatio="xMidYMid meet">
<metadata>
Created by potrace 1.10, written by Peter Selinger 2001-2011
</metadata>
<g transform="translate(0.000000,32.000000) scale(0.100000,-0.100000)"
fill="#000000" stroke="none">
<path d="M134 270 c-33 -13 -64 -59 -64 -96 0 -47 35 -84 86 -91 33 -4 45 -1
71 21 60 50 48 132 -22 162 -39 16 -42 16 -71 4z m87 -39 c36 -36 37 -73 4
-106 -31 -32 -86 -34 -115 -5 -31 31 -27 93 6 119 37 29 70 26 105 -8z"/>
<path d="M139 184 c-20 -47 -19 -68 3 -46 15 15 48 16 48 2 0 -5 6 -10 14 -10
11 0 10 10 -7 50 -11 28 -25 50 -29 50 -5 0 -18 -21 -29 -46z"/>
</g>
</svg>
